<svg viewBox="0 0 390 250" xmlns="http://www.w3.org/2000/svg">
  <defs>
    <linearGradient id="walaGlobalGradient" x1="0%" y1="0%" x2="100%" y2="100%">
       <stop offset="0%" stopColor="#8B5CF6" />
       <stop offset="100%" stopColor="#5B21B6" />
    </linearGradient>
    <path id="tagBaseGlobal" d="M 32 42 L 28 88 C 27 92 30 94 34 93 L 85 80 C 89 79 91 76 89 72 L 76 18 C 75 13 68 11 65 14 L 36 34 C 32 37 31 40 32 42 Z" />
  </defs>

  <!-- ISOTIPO (Big Tag) -->
  <g transform="translate(100, 10) scale(1.4)">
     <use href="#tagBaseGlobal" fill="url(#walaGlobalGradient)" />
     <circle cx="67" cy="23" r="6.5" fill="#FFFFFF" />
     <path d="M 38 42 L 43 78 L 54 52 L 64 72 L 72 38" fill="none" stroke="#FFFFFF" stroke-width="15" stroke-linecap="round" stroke-linejoin="round" />
     <path d="M 68 20 C 72 -2, 98 0, 85 28" stroke="url(#walaGlobalGradient)" stroke-width="6" stroke-linecap="round" fill="none" />
  </g>

  <!-- LOGOTIPO (WALÁ) Anchored to right edge so 'A' is fixed -->
  <text x="350" y="225" text-anchor="end" font-family="'Montserrat', 'Arial Black', sans-serif" font-weight="900" font-size="88" fill="url(#walaGlobalGradient)" letter-spacing="-3">WALA</text>

  <!-- THE TILDE ACCENT OVER 'A' -->
  <g transform="translate(328, 122) scale(0.35) rotate(5)">
     <use href="#tagBaseGlobal" fill="url(#walaGlobalGradient)" />
     <circle cx="67" cy="23" r="6.5" fill="#FFFFFF" />
     <path d="M 38 42 L 43 78 L 54 52 L 64 72 L 72 38" fill="none" stroke="#FFFFFF" stroke-width="15" stroke-linecap="round" stroke-linejoin="round" />
     <path d="M 68 20 C 72 45, 95 35, 85 15" stroke="url(#walaGlobalGradient)" stroke-width="6" stroke-linecap="round" fill="none" />
  </g>
</svg>
